<svg width="245" height="244" viewBox="350 0 245 244" fill="none" xmlns="http://www.w3.org/2000/svg">
<rect x="2.07033" y="2" width="240" height="240" rx="15" fill="#161616"></rect>
<path fill-rule="evenodd" clip-rule="evenodd" d="M226.675 0C235.885 0 243.35 7.46563 243.35 16.675V226.675C243.35 235.885 235.885 243.35 226.675 243.35H16.675C7.46563 243.35 0 235.885 0 226.675V16.675C0 7.46563 7.46563 0 16.675 0H226.675ZM18.7593 4.16874C10.7012 4.16874 4.16874 10.7012 4.16874 18.7593V220.422C4.16874 228.48 10.7012 235.013 18.7593 235.013H224.591C232.649 235.013 239.181 228.48 239.181 220.422V18.7593C239.181 10.7012 232.649 4.16874 224.591 4.16874H18.7593Z" fill="#F5F4F0"></path>
<path d="M126.001 179.156H118.739V175.659H130.304V206.662H137.614V210.207H117.932V206.662H126.001V179.156Z" fill="#F5F4F0"></path>
<path d="M91.11 185.659H94.9976L95.1199 190.183C96.5706 188.439 97.9969 187.175 99.3987 186.393C100.817 185.61 102.243 185.219 103.677 185.219C106.22 185.219 108.144 186.042 109.448 187.689C110.768 189.335 111.379 191.78 111.282 195.024H106.978C107.027 192.872 106.709 191.316 106.025 190.354C105.356 189.376 104.37 188.887 103.066 188.887C102.496 188.887 101.917 188.993 101.33 189.205C100.76 189.4 100.165 189.726 99.5454 190.183C98.9423 190.623 98.2984 191.193 97.6138 191.894C96.9292 192.595 96.1957 193.443 95.4133 194.437V210.207H91.11V185.659Z" fill="#F5F4F0"></path>
<path d="M82.3569 209.865C81.3952 210.11 80.4008 210.281 79.3739 210.379C78.347 210.493 77.3038 210.55 76.2443 210.55C73.1636 210.55 70.8652 209.857 69.3493 208.472C67.8334 207.07 67.0754 204.926 67.0754 202.041V189.229H60.2049V185.66H67.0754V178.911L71.3298 177.811V185.66H82.3569V189.229H71.3298V201.699C71.3298 203.459 71.7943 204.78 72.7234 205.66C73.6689 206.524 75.0544 206.956 76.88 206.956C77.6624 206.956 78.5182 206.899 79.4473 206.785C80.3764 206.654 81.3463 206.459 82.3569 206.198V209.865Z" fill="#F5F4F0"></path>
<path d="M55.4614 209.01C52.9023 210.069 50.2209 210.599 47.4173 210.599C42.9021 210.599 39.4301 209.254 37.0014 206.565C34.589 203.859 33.3828 199.865 33.3828 194.584C33.3828 192.025 33.7169 189.71 34.3852 187.64C35.0535 185.57 36.0071 183.818 37.2459 182.383C38.4847 180.932 39.9844 179.816 41.7448 179.033C43.5052 178.251 45.4775 177.86 47.6618 177.86C49.1451 177.86 50.5224 177.99 51.7939 178.251C53.0653 178.496 54.2878 178.879 55.4614 179.4V183.679C54.3041 183.043 53.106 182.562 51.8672 182.236C50.6284 181.894 49.2755 181.723 47.8085 181.723C46.3088 181.723 44.9478 182.008 43.7253 182.579C42.519 183.133 41.4921 183.948 40.6445 185.024C39.7969 186.083 39.1449 187.387 38.6885 188.936C38.2321 190.468 38.0039 192.22 38.0039 194.193C38.0039 198.333 38.8433 201.454 40.5223 203.557C42.2012 205.66 44.6625 206.711 47.9063 206.711C49.2755 206.711 50.5876 206.556 51.8428 206.247C53.0979 205.921 54.3041 205.472 55.4614 204.902V209.01Z" fill="#F5F4F0"></path>
<path d="M183.993 57.0614L181.254 54.3891L195.1 37.7612L208.946 54.3891L206.231 57.0614L195.149 43.576L183.993 57.0614Z" fill="#F5F4F0"></path>
<path d="M308.803 123.489H299.164V133.423H294.946V123.489H285.307V119.788H294.946V109.927H299.164V119.788H308.803V123.489Z" fill="#F5F4F0"></path>
<rect x="354.07" width="240" height="240" rx="15" fill="#161616"></rect>
<path fill-rule="evenodd" clip-rule="evenodd" d="M577.435 0C586.645 0 594.11 7.46563 594.11 16.675V226.675C594.11 235.885 586.645 243.35 577.435 243.35H367.435C358.226 243.35 350.76 235.885 350.76 226.675V16.675C350.76 7.46563 358.226 0 367.435 0H577.435ZM369.519 4.16874C361.461 4.16874 354.929 10.7012 354.929 18.7593V220.422C354.929 228.48 361.461 235.013 369.519 235.013H575.351C583.409 235.013 589.941 228.48 589.941 220.422V18.7593C589.941 10.7012 583.409 4.16874 575.351 4.16874H369.519Z" fill="#F5F4F0"></path>
<path d="M440.163 185.659H443.953L444.124 189.62C444.841 188.773 445.534 188.072 446.202 187.518C446.87 186.947 447.522 186.491 448.158 186.148C448.81 185.806 449.47 185.57 450.139 185.439C450.807 185.293 451.5 185.219 452.217 185.219C454.743 185.219 456.651 185.969 457.938 187.469C459.242 188.952 459.894 191.193 459.894 194.193V210.207H455.64V194.535C455.64 192.611 455.281 191.193 454.564 190.28C453.847 189.351 452.779 188.887 451.361 188.887C450.839 188.887 450.326 188.968 449.821 189.131C449.332 189.278 448.818 189.547 448.28 189.938C447.742 190.313 447.156 190.827 446.52 191.479C445.901 192.131 445.2 192.946 444.417 193.924V210.207H440.163V185.659Z" fill="#F5F4F0"></path>
<path d="M433.366 196.638C433.366 197.241 433.357 197.746 433.341 198.153C433.325 198.561 433.3 198.944 433.268 199.303H416.03C416.03 201.813 416.731 203.744 418.133 205.097C419.535 206.434 421.556 207.102 424.197 207.102C424.914 207.102 425.631 207.078 426.348 207.029C427.066 206.964 427.758 206.882 428.427 206.784C429.095 206.687 429.731 206.581 430.334 206.467C430.953 206.336 431.524 206.198 432.045 206.051V209.547C430.888 209.873 429.576 210.134 428.109 210.33C426.658 210.542 425.15 210.648 423.585 210.648C421.483 210.648 419.673 210.362 418.157 209.792C416.642 209.221 415.395 208.398 414.417 207.322C413.455 206.23 412.738 204.902 412.265 203.337C411.809 201.756 411.58 199.971 411.58 197.982C411.58 196.254 411.825 194.624 412.314 193.092C412.819 191.544 413.544 190.191 414.49 189.033C415.452 187.86 416.625 186.931 418.011 186.246C419.396 185.562 420.969 185.219 422.73 185.219C424.441 185.219 425.957 185.488 427.277 186.026C428.598 186.564 429.706 187.33 430.603 188.324C431.515 189.302 432.2 190.501 432.656 191.919C433.129 193.32 433.366 194.893 433.366 196.638ZM428.94 196.026C428.989 194.934 428.883 193.94 428.622 193.043C428.361 192.131 427.954 191.348 427.4 190.696C426.862 190.044 426.185 189.539 425.37 189.18C424.555 188.805 423.61 188.618 422.534 188.618C421.605 188.618 420.757 188.797 419.991 189.156C419.225 189.514 418.565 190.02 418.011 190.672C417.457 191.324 417.008 192.106 416.666 193.019C416.324 193.932 416.112 194.934 416.03 196.026H428.94Z" fill="#F5F4F0"></path>
<path d="M405.663 181.674L389.355 206.149H405.981V210.208H383.903V206.956L400.309 182.212H384.343V178.251H405.663V181.674Z" fill="#F5F4F0"></path>
<path d="M551.314 31.0479C557.802 31.0479 563.062 36.3076 563.062 42.7958C563.062 49.284 557.802 54.5437 551.314 54.5437C544.826 54.5437 539.566 49.284 539.566 42.7958C539.566 36.3076 544.826 31.0479 551.314 31.0479ZM551.314 35.1341C547.083 35.1341 543.652 38.5644 543.652 42.7958C543.652 47.0272 547.083 50.4575 551.314 50.4575C555.546 50.4575 558.976 47.0272 558.976 42.7958C558.976 38.5644 555.546 35.1341 551.314 35.1341Z" fill="#F5F4F0"></path>
</svg>